Coordinates
version=1
nRows=23
nColumns=28
inDegrees=yes

Units are S.I. units (second, meters, Newtons, ...)
Angles are in degrees.

endheader
time	pelvis_tilt	pelvis_list	pelvis_rotation	pelvis_tx	pelvis_ty	pelvis_tz	hip_flexion_r	hip_adduction_r	hip_rotation_r	knee_angle_r	ankle_angle_r	subtalar_angle_r	mtp_angle_r	hip_flexion_l	hip_adduction_l	hip_rotation_l	knee_angle_l	socket_flexion	socket_adduction	socket_rotation	socket_tx	socket_ty	socket_tz	foot_flex	lumbar_extension	lumbar_bending	lumbar_rotation
      0.32083333	      2.68771442	     -1.36972317	     -5.65742887	     -0.44233729	      1.01575833	      0.28760282	     11.74025774	      2.71217078	      4.29255627	    -64.25504887	      2.00021798	    -17.12963953	     23.27220318	     -4.85374716	      0.59083684	      9.96362046	      4.38329422	      4.31909304	      0.40259606	     -1.09307493	      0.00000000	     -0.00756155	      0.00000000	      1.46893713	    -11.78496127	     -2.78947913	      6.53354614
      0.32500000	      2.72780125	     -1.72012159	     -5.46644844	     -0.43696223	      1.01623045	      0.28730887	     12.07030055	      3.18222141	      4.25875892	    -63.77486404	      2.82533310	    -16.75579469	     23.53708094	     -5.41520777	      0.19921982	     10.06365171	      4.76546518	      4.46336694	      0.42883656	     -0.96632304	      0.00000000	     -0.00759757	      0.00000000	      1.66510538	    -11.83062708	     -2.33580536	      6.21561941
      0.32916667	      2.84495342	     -1.97079918	     -5.30611596	     -0.43182391	      1.01674265	      0.28698105	     12.39136948	      3.48790094	      4.18067330	    -63.33109585	      3.21619216	    -16.25666045	     23.72875044	     -6.03635425	     -0.06547111	     10.11951070	      5.17192081	      4.62669461	      0.44198971	     -0.88939523	      0.00000000	     -0.00754811	      0.00000000	      1.72003018	    -11.98352074	     -2.01043462	      5.90878067
      0.33333333	      2.89378122	     -1.97121604	     -5.20695049	     -0.42708009	      1.01704398	      0.28684311	     12.92188988	      3.54736357	      4.18466304	    -63.03641376	      3.26491504	    -16.24936617	     23.73794358	     -6.38917316	     -0.03627130	     10.12586057	      5.15116130	      4.53648453	      0.44996056	     -0.87233126	      0.00000000	     -0.00736010	      0.00000000	      1.75601763	    -12.08630549	     -2.02110771	      5.89601747
      0.33750000	      3.09137945	     -2.37003922	     -5.00460164	     -0.42177556	      1.01765554	      0.28654535	     13.04443523	      4.02633420	      4.11080966	    -62.39903048	      3.90229065	    -15.69967585	     23.99768774	     -7.13538138	     -0.46562832	      9.89918699	      5.58216325	      4.70443454	      0.50210544	     -0.46648004	      0.00000000	     -0.00740996	      0.00000000	      1.92352679	    -12.32236884	     -1.52180473	      5.47352783
      0.34166667	      3.12939067	     -2.36962197	     -4.89451203	     -0.41717023	      1.01787420	      0.28645553	     13.57919400	      4.09086645	      4.10752087	    -62.05233499	      3.96632841	    -15.70300912	     24.00653331	     -7.46376199	     -0.44421999	      9.88945755	      5.56159439	      4.62100941	      0.51441799	     -0.42796232	      0.00000000	     -0.00725630	      0.00000000	      1.96698288	    -12.43721952	     -1.54446963	      5.46357159
      0.34583333	      3.18196335	     -2.81613297	     -4.64777330	     -0.41179503	      1.01825656	      0.28619670	     13.80856745	      4.64982612	      4.01021064	    -61.30278281	      4.59343078	    -15.44133699	     24.17003586	     -7.94753286	     -0.92897526	      9.28387940	      5.67955402	      4.59198231	      0.61307915	      0.40244875	      0.00000000	     -0.00755061	      0.00000000	      2.11542897	    -12.48683383	     -0.98396926	      5.09943767
      0.35000000	      3.20401912	     -2.90882571	     -4.44330112	     -0.40690259	      1.01850449	      0.28606635	     14.22964965	      4.81161986	      3.94811778	    -60.73438838	      4.84453254	    -15.42725460	     24.20940999	     -8.28292511	     -1.02993509	      9.08376415	      5.67353001	      4.52273641	      0.65358339	      0.78682608	      0.00000000	     -0.00738754	      0.00000000	      2.31069844	    -12.53570029	     -0.90271553	      5.03548818
      0.35416667	      3.56413581	     -3.24254714	     -4.48974934	     -0.40170215	      1.01919447	      0.28607114	     14.20316455	      5.23777724	      4.09157444	    -60.04953633	      5.16201583	    -15.18339062	     24.17631624	     -8.81759491	     -1.22817172	      7.08572422	      4.84017613	      3.78245782	      0.75586834	      2.68877821	      0.00000000	     -0.00783599	      0.00000000	      2.37497830	    -12.97464050	     -0.52712444	      4.94849457
      0.35833333	      3.52148928	     -3.30637681	     -4.25958125	     -0.39704130	      1.01930432	      0.28595984	     14.69030202	      5.38337695	      4.04015475	    -59.42268271	      5.38598482	    -15.19952258	     24.19954397	     -9.04835793	     -1.31734706	      6.97451795	      4.82418552	      3.73059313	      0.80414246	      2.97195233	      0.00000000	     -0.00771926	      0.00000000	      2.50773249	    -12.97375437	     -0.48024711	      4.90322892
      0.36250000	      3.53149647	     -3.33152554	     -4.14341088	     -0.39281675	      1.01927970	      0.28585385	     15.25280132	      5.44835843	      3.99967397	    -58.95222081	      5.47382059	    -15.20469786	     24.20503560	     -9.31041258	     -1.33436684	      6.89213181	      4.79836077	      3.68498644	      0.82479582	      3.07110585	      0.00000000	     -0.00777770	      0.00000000	      2.55004925	    -13.11588180	     -0.48513877	      4.87247733
      0.36666667	      3.50385798	     -3.90520964	     -4.00934137	     -0.38701504	      1.01946527	      0.28570569	     15.44781481	      6.15593818	      3.96882991	    -57.96297186	      5.86453021	    -15.05018181	     24.03335503	     -9.39155061	     -1.87646278	      4.61551786	      3.77787210	      2.83671129	      0.91581065	      5.48365787	      0.00000000	     -0.00855746	      0.00000000	      2.76409498	    -13.02662584	      0.27876422	      4.37155742
      0.37083333	      3.58684930	     -3.98695782	     -3.94340904	     -0.38217351	      1.01964138	      0.28551309	     15.76891378	      6.27039138	      3.99138138	    -57.26926765	      6.25867505	    -15.02752364	     23.66112778	     -9.21404584	     -1.86646968	      2.66874866	      1.99527874	      1.54566864	      0.83340960	      7.53614918	      0.00000000	     -0.00896494	      0.00000000	      2.80870441	    -13.15410884	      0.37886814	      4.53467303
      0.37500000	      3.47790543	     -4.19035573	     -3.69446064	     -0.37736886	      1.01951550	      0.28527236	     16.27017321	      6.50898531	      3.81688986	    -56.51506784	      6.48828350	    -15.01553462	     23.63480439	     -9.39086320	     -2.11989263	      2.28078563	      1.98268385	      1.47802911	      0.88394189	      8.13979920	      0.00000000	     -0.00911931	      0.00000000	      2.93472137	    -13.06160278	      0.63578039	      4.31006817
      0.37916667	      3.41586872	     -4.39165495	     -3.54509558	     -0.37265899	      1.01946159	      0.28517232	     16.69272828	      6.78101444	      3.78087617	    -55.67370247	      6.65569577	    -15.05182325	     23.49523021	     -9.51805370	     -2.34391460	      1.47961558	      1.64049696	      1.19444832	      0.88981684	      9.03812171	      0.00000000	     -0.00935877	      0.00000000	      3.02687964	    -13.07346286	      0.89635058	      4.07265896
      0.38333333	      3.50544062	     -4.45788851	     -3.50834114	     -0.36796048	      1.01962030	      0.28511208	     16.97371279	      6.90124275	      3.84931955	    -54.88720932	      6.90520092	    -15.12945344	     22.86215110	     -9.30791038	     -2.37870731	     -0.43536751	     -0.23104478	     -0.12296577	      0.67686477	     11.01717010	      0.00000000	     -0.00953810	      0.00000000	      3.16091177	    -13.22749841	      0.93324584	      4.18755506
      0.38750000	      3.37994686	     -4.58923244	     -3.30711497	     -0.36325454	      1.01940871	      0.28487531	     17.46950712	      7.04166202	      3.70363974	    -54.04054200	      7.10313594	    -15.16040792	     22.80143940	     -9.46038791	     -2.54881018	     -0.73503279	     -0.24171208	     -0.17500141	      0.68724027	     11.48138908	      0.00000000	     -0.00964216	      0.00000000	      3.27118727	    -13.14003013	      1.12004959	      4.00317530
      0.39166667	      3.37531539	     -4.70964918	     -3.21137148	     -0.35855626	      1.01940339	      0.28479372	     17.80166709	      7.21946025	      3.71830609	    -53.14523162	      7.26346957	    -15.39570571	     22.20769853	     -9.42814620	     -2.69552667	     -1.89080800	     -1.25349841	     -0.90236217	      0.54144567	     12.73412425	      0.00000000	     -0.00973489	      0.00000000	      3.39258439	    -13.19133820	      1.25896885	      3.93976900
      0.39583333	      3.33089427	     -4.67013815	     -3.08957637	     -0.35423037	      1.01928977	      0.28473182	     18.24939301	      7.19671255	      3.69310234	    -52.31346804	      7.37627939	    -15.41496989	     22.19356000	     -9.63080523	     -2.66001556	     -1.97188523	     -1.26727587	     -0.92105044	      0.54593841	     12.82514495	      0.00000000	     -0.00957614	      0.00000000	      3.47835051	    -13.25318277	      1.20377928	      3.92112579
      0.40000000	      3.24407419	     -4.68434092	     -2.92779403	     -0.34955003	      1.01917139	      0.28452991	     18.64293624	      7.21238900	      3.62897802	    -51.34970632	      7.54560174	    -15.48388641	     22.15843229	     -9.83273626	     -2.68905433	     -2.08242943	     -1.24005930	     -0.94792699	      0.54030792	     13.09498419	      0.00000000	     -0.00939207	      0.00000000	      3.61936002	    -13.19638691	      1.21360050	      3.86860973
      0.40416667	      3.16486529	     -4.99309838	     -2.85995403	     -0.34464954	      1.01895837	      0.28443543	     18.96748233	      7.59818607	      3.61492612	    -50.30766284	      7.71312956	    -16.03929829	     20.95753847	     -9.71564615	     -3.06770980	     -3.48290308	     -2.38259718	     -1.77247480	      0.33904491	     14.59842833	      0.00000000	     -0.00979811	      0.00000000	      3.72281558	    -13.15735797	      1.61770515	      3.70054538
      0.40833333	      3.10373797	     -4.93311415	     -2.76241656	     -0.34020935	      1.01878644	      0.28433470	     19.36742309	      7.53349876	      3.57939259	    -49.37287123	      7.83778796	    -16.06266571	     20.93391328	     -9.91319726	     -3.00219773	     -3.54349322	     -2.39336932	     -1.79524869	      0.33097976	     14.67312194	      0.00000000	     -0.00959024	      0.00000000	      3.82414337	    -13.18327262	      1.54435115	      3.69053044
      0.41250000	      3.01994911	     -4.91150512	     -2.64753705	     -0.33559779	      1.01854598	      0.28415136	     19.74125185	      7.49461403	      3.52605521	    -48.36608441	      7.99274653	    -16.14173697	     20.88603900	    -10.11157361	     -2.98491648	     -3.59869289	     -2.38094413	     -1.81921101	      0.31442160	     14.85006857	      0.00000000	     -0.00944726	      0.00000000	      3.95151613	    -13.14384783	      1.51263954	      3.66199021
